<mxfile host="app.diagrams.net" modified="2021-08-11T15:01:57.617Z" agent="5.0 (Windows NT 10.0; Win64; x64) AppleWebKit/537.36 (KHTML, like Gecko) Chrome/92.0.4515.131 Safari/537.36 Edg/92.0.902.67" etag="qhq84xccF0xYM0nPdsRg" version="14.9.6" type="github">
  <diagram id="z5EHSUFkLtfj8-992ogr" name="Page-1">
    <mxGraphModel dx="1038" dy="579" grid="1" gridSize="10" guides="1" tooltips="1" connect="1" arrows="1" fold="1" page="1" pageScale="1" pageWidth="827" pageHeight="1169" math="0" shadow="0">
      <root>
        <mxCell id="0" />
        <mxCell id="1" parent="0" />
        <mxCell id="66tO8a0DNV6wsIOmhz9U-43" value="" style="rounded=0;whiteSpace=wrap;html=1;align=left;dashed=1;" vertex="1" parent="1">
          <mxGeometry x="420" y="100" width="350" height="310" as="geometry" />
        </mxCell>
        <mxCell id="66tO8a0DNV6wsIOmhz9U-39" value="" style="shape=cylinder3;whiteSpace=wrap;html=1;boundedLbl=1;backgroundOutline=1;size=15;" vertex="1" parent="1">
          <mxGeometry x="110" y="480" width="310" height="70" as="geometry" />
        </mxCell>
        <mxCell id="66tO8a0DNV6wsIOmhz9U-36" value="" style="shape=cylinder3;whiteSpace=wrap;html=1;boundedLbl=1;backgroundOutline=1;size=15;" vertex="1" parent="1">
          <mxGeometry x="110" y="440" width="310" height="70" as="geometry" />
        </mxCell>
        <mxCell id="66tO8a0DNV6wsIOmhz9U-33" value="" style="shape=cylinder3;whiteSpace=wrap;html=1;boundedLbl=1;backgroundOutline=1;size=15;" vertex="1" parent="1">
          <mxGeometry x="110" y="400" width="310" height="70" as="geometry" />
        </mxCell>
        <mxCell id="66tO8a0DNV6wsIOmhz9U-1" value="" style="shape=cylinder3;whiteSpace=wrap;html=1;boundedLbl=1;backgroundOutline=1;size=15;" vertex="1" parent="1">
          <mxGeometry x="110" y="80" width="310" height="350" as="geometry" />
        </mxCell>
        <mxCell id="66tO8a0DNV6wsIOmhz9U-8" value="" style="shape=cylinder3;whiteSpace=wrap;html=1;boundedLbl=1;backgroundOutline=1;size=15;" vertex="1" parent="1">
          <mxGeometry x="110" y="320" width="310" height="70" as="geometry" />
        </mxCell>
        <mxCell id="66tO8a0DNV6wsIOmhz9U-7" value="" style="shape=cylinder3;whiteSpace=wrap;html=1;boundedLbl=1;backgroundOutline=1;size=15;" vertex="1" parent="1">
          <mxGeometry x="110" y="280" width="310" height="70" as="geometry" />
        </mxCell>
        <mxCell id="66tO8a0DNV6wsIOmhz9U-6" value="" style="shape=cylinder3;whiteSpace=wrap;html=1;boundedLbl=1;backgroundOutline=1;size=15;" vertex="1" parent="1">
          <mxGeometry x="110" y="240" width="310" height="70" as="geometry" />
        </mxCell>
        <mxCell id="66tO8a0DNV6wsIOmhz9U-5" value="" style="shape=cylinder3;whiteSpace=wrap;html=1;boundedLbl=1;backgroundOutline=1;size=15;" vertex="1" parent="1">
          <mxGeometry x="110" y="200" width="310" height="70" as="geometry" />
        </mxCell>
        <mxCell id="66tO8a0DNV6wsIOmhz9U-4" value="" style="shape=cylinder3;whiteSpace=wrap;html=1;boundedLbl=1;backgroundOutline=1;size=15;" vertex="1" parent="1">
          <mxGeometry x="110" y="160" width="310" height="70" as="geometry" />
        </mxCell>
        <mxCell id="66tO8a0DNV6wsIOmhz9U-3" value="" style="shape=cylinder3;whiteSpace=wrap;html=1;boundedLbl=1;backgroundOutline=1;size=15;" vertex="1" parent="1">
          <mxGeometry x="110" y="120" width="310" height="70" as="geometry" />
        </mxCell>
        <mxCell id="66tO8a0DNV6wsIOmhz9U-2" value="" style="shape=cylinder3;whiteSpace=wrap;html=1;boundedLbl=1;backgroundOutline=1;size=15;" vertex="1" parent="1">
          <mxGeometry x="110" y="80" width="310" height="70" as="geometry" />
        </mxCell>
        <mxCell id="66tO8a0DNV6wsIOmhz9U-9" value="showcase" style="text;html=1;align=center;verticalAlign=middle;resizable=0;points=[];autosize=1;strokeColor=none;fontStyle=1" vertex="1" parent="1">
          <mxGeometry x="230" y="120" width="70" height="20" as="geometry" />
        </mxCell>
        <mxCell id="66tO8a0DNV6wsIOmhz9U-10" value="vbo365" style="text;html=1;strokeColor=none;fillColor=none;align=center;verticalAlign=middle;whiteSpace=wrap;rounded=0;fontStyle=1" vertex="1" parent="1">
          <mxGeometry x="245" y="160" width="40" height="20" as="geometry" />
        </mxCell>
        <mxCell id="66tO8a0DNV6wsIOmhz9U-13" value="&lt;b&gt;stack des microservices&amp;nbsp;PUBLIC CLOUD conteneurisés&lt;/b&gt;" style="text;html=1;strokeColor=none;fillColor=none;align=center;verticalAlign=middle;whiteSpace=wrap;rounded=0;" vertex="1" parent="1">
          <mxGeometry x="127.5" y="575" width="542.5" height="20" as="geometry" />
        </mxCell>
        <mxCell id="66tO8a0DNV6wsIOmhz9U-14" value="&lt;b&gt;monitoring&lt;/b&gt;" style="text;html=1;strokeColor=none;fillColor=none;align=center;verticalAlign=middle;whiteSpace=wrap;rounded=0;" vertex="1" parent="1">
          <mxGeometry x="245" y="200" width="40" height="20" as="geometry" />
        </mxCell>
        <mxCell id="66tO8a0DNV6wsIOmhz9U-15" value="&lt;b&gt;identity&lt;/b&gt;" style="text;html=1;strokeColor=none;fillColor=none;align=center;verticalAlign=middle;whiteSpace=wrap;rounded=0;" vertex="1" parent="1">
          <mxGeometry x="245" y="240" width="40" height="20" as="geometry" />
        </mxCell>
        <mxCell id="66tO8a0DNV6wsIOmhz9U-16" value="&lt;b&gt;offers&lt;/b&gt;" style="text;html=1;strokeColor=none;fillColor=none;align=center;verticalAlign=middle;whiteSpace=wrap;rounded=0;" vertex="1" parent="1">
          <mxGeometry x="245" y="280" width="40" height="20" as="geometry" />
        </mxCell>
        <mxCell id="66tO8a0DNV6wsIOmhz9U-17" value="&lt;b&gt;wordpress&lt;/b&gt;" style="text;html=1;strokeColor=none;fillColor=none;align=center;verticalAlign=middle;whiteSpace=wrap;rounded=0;" vertex="1" parent="1">
          <mxGeometry x="245" y="320" width="40" height="20" as="geometry" />
        </mxCell>
        <mxCell id="66tO8a0DNV6wsIOmhz9U-18" value="&lt;b&gt;manager&lt;/b&gt;" style="text;html=1;strokeColor=none;fillColor=none;align=center;verticalAlign=middle;whiteSpace=wrap;rounded=0;" vertex="1" parent="1">
          <mxGeometry x="245" y="360" width="40" height="20" as="geometry" />
        </mxCell>
        <mxCell id="66tO8a0DNV6wsIOmhz9U-20" value="&lt;b&gt;billing&lt;/b&gt;" style="text;html=1;strokeColor=none;fillColor=none;align=center;verticalAlign=middle;whiteSpace=wrap;rounded=0;" vertex="1" parent="1">
          <mxGeometry x="245" y="400" width="40" height="20" as="geometry" />
        </mxCell>
        <mxCell id="66tO8a0DNV6wsIOmhz9U-22" value="micro-service du portail web be ys cloud consommant les APIs" style="rounded=0;whiteSpace=wrap;html=1;" vertex="1" parent="1">
          <mxGeometry x="420" y="100" width="270" height="30" as="geometry" />
        </mxCell>
        <mxCell id="66tO8a0DNV6wsIOmhz9U-24" value="micro-service de sauvegarde et de restauration MS Office 365 exposant une API Rest" style="rounded=0;whiteSpace=wrap;html=1;" vertex="1" parent="1">
          <mxGeometry x="420" y="140" width="270" height="30" as="geometry" />
        </mxCell>
        <mxCell id="66tO8a0DNV6wsIOmhz9U-25" value="micro-service de surveillance de l&#39;infrastructure et machine virtuelle" style="rounded=0;whiteSpace=wrap;html=1;" vertex="1" parent="1">
          <mxGeometry x="420" y="180" width="270" height="30" as="geometry" />
        </mxCell>
        <mxCell id="66tO8a0DNV6wsIOmhz9U-26" value="micro-service d&#39;authentifications et d&#39;autorisations centralisé" style="rounded=0;whiteSpace=wrap;html=1;" vertex="1" parent="1">
          <mxGeometry x="420" y="220" width="270" height="30" as="geometry" />
        </mxCell>
        <mxCell id="66tO8a0DNV6wsIOmhz9U-27" value="micro-service encapsulant l&#39;ensemble de offres de be ys Cloud et exposant une API Rest" style="rounded=0;whiteSpace=wrap;html=1;" vertex="1" parent="1">
          <mxGeometry x="420" y="260" width="270" height="30" as="geometry" />
        </mxCell>
        <mxCell id="66tO8a0DNV6wsIOmhz9U-28" value="micro-service du système de gestion du contenu incorporé au service showcase" style="rounded=0;whiteSpace=wrap;html=1;" vertex="1" parent="1">
          <mxGeometry x="420" y="300" width="270" height="30" as="geometry" />
        </mxCell>
        <mxCell id="66tO8a0DNV6wsIOmhz9U-29" value="micro-service du système de gestion des machines virtuelles sous OpenStack" style="rounded=0;whiteSpace=wrap;html=1;" vertex="1" parent="1">
          <mxGeometry x="420" y="340" width="270" height="30" as="geometry" />
        </mxCell>
        <mxCell id="66tO8a0DNV6wsIOmhz9U-30" value="micro-service de gestion de paiement et de facturation centralisé" style="rounded=0;whiteSpace=wrap;html=1;" vertex="1" parent="1">
          <mxGeometry x="420" y="380" width="270" height="30" as="geometry" />
        </mxCell>
        <mxCell id="66tO8a0DNV6wsIOmhz9U-34" value="portainer" style="text;html=1;strokeColor=none;fillColor=none;align=center;verticalAlign=middle;whiteSpace=wrap;rounded=0;fontStyle=1" vertex="1" parent="1">
          <mxGeometry x="245" y="440" width="40" height="20" as="geometry" />
        </mxCell>
        <mxCell id="66tO8a0DNV6wsIOmhz9U-35" value="micro-service de supervision des containers docker et services déployé" style="rounded=0;whiteSpace=wrap;html=1;" vertex="1" parent="1">
          <mxGeometry x="420" y="420" width="270" height="30" as="geometry" />
        </mxCell>
        <mxCell id="66tO8a0DNV6wsIOmhz9U-37" value="traefik" style="text;html=1;strokeColor=none;fillColor=none;align=center;verticalAlign=middle;whiteSpace=wrap;rounded=0;fontStyle=1" vertex="1" parent="1">
          <mxGeometry x="245" y="480" width="40" height="20" as="geometry" />
        </mxCell>
        <mxCell id="66tO8a0DNV6wsIOmhz9U-38" value="micro-service de supervision des trafics réseaux et de surveillance." style="rounded=0;whiteSpace=wrap;html=1;" vertex="1" parent="1">
          <mxGeometry x="420" y="460" width="270" height="30" as="geometry" />
        </mxCell>
        <mxCell id="66tO8a0DNV6wsIOmhz9U-40" value="micro-service du système de gestion de bases de données." style="rounded=0;whiteSpace=wrap;html=1;" vertex="1" parent="1">
          <mxGeometry x="420" y="500" width="270" height="30" as="geometry" />
        </mxCell>
        <mxCell id="66tO8a0DNV6wsIOmhz9U-41" value="PostgreSQL" style="text;html=1;strokeColor=none;fillColor=none;align=center;verticalAlign=middle;whiteSpace=wrap;rounded=0;fontStyle=1" vertex="1" parent="1">
          <mxGeometry x="245" y="520" width="40" height="20" as="geometry" />
        </mxCell>
        <mxCell id="66tO8a0DNV6wsIOmhz9U-44" value="&lt;font style=&quot;font-size: 16px&quot;&gt;Redondant sur SWARM 1 et 2&lt;/font&gt;" style="text;html=1;strokeColor=none;fillColor=none;align=center;verticalAlign=middle;whiteSpace=wrap;rounded=0;dashed=1;rotation=-90;fontStyle=1" vertex="1" parent="1">
          <mxGeometry x="613.5" y="240.5" width="233.5" height="36.5" as="geometry" />
        </mxCell>
      </root>
    </mxGraphModel>
  </diagram>
</mxfile>
